  0
SECTION
  2
HEADER
  9
$ACADVER
  1
AC1009
  9
$INSBASE
 10
0.0
 20
0.0
 30
0.0
  9
$EXTMIN
 10
194268.0299999999988358
 20
513222.882999999797903
 30
0.0
  9
$EXTMAX
 10
194412.878999999986263
 20
513323.8140000000712462
 30
46.740000000000002
  9
$LIMMIN
 10
0.0
 20
0.0
  9
$LIMMAX
 10
420.0
 20
297.0
  9
$ORTHOMODE
 70
     0
  9
$REGENMODE
 70
     1
  9
$FILLMODE
 70
     1
  9
$QTEXTMODE
 70
     0
  9
$MIRRTEXT
 70
     0
  9
$DRAGMODE
 70
     2
  9
$LTSCALE
 40
1.0
  9
$OSMODE
 70
     1
  9
$ATTMODE
 70
     1
  9
$TEXTSIZE
 40
2.5
  9
$TRACEWID
 40
1.0
  9
$TEXTSTYLE
  7
STANDARD
  9
$CLAYER
  8
0
  9
$CELTYPE
  6
BYLAYER
  9
$CECOLOR
 62
   256
  9
$DIMSCALE
 40
1.0
  9
$DIMASZ
 40
2.5
  9
$DIMEXO
 40
0.625
  9
$DIMDLI
 40
3.75
  9
$DIMRND
 40
0.0
  9
$DIMDLE
 40
0.0
  9
$DIMEXE
 40
1.25
  9
$DIMTP
 40
0.0
  9
$DIMTM
 40
0.0
  9
$DIMTXT
 40
2.5
  9
$DIMCEN
 40
2.5
  9
$DIMTSZ
 40
0.0
  9
$DIMTOL
 70
     0
  9
$DIMLIM
 70
     0
  9
$DIMTIH
 70
     0
  9
$DIMTOH
 70
     0
  9
$DIMSE1
 70
     0
  9
$DIMSE2
 70
     0
  9
$DIMTAD
 70
     1
  9
$DIMZIN
 70
     8
  9
$DIMBLK
  1

  9
$DIMASO
 70
     1
  9
$DIMSHO
 70
     1
  9
$DIMPOST
  1

  9
$DIMAPOST
  1

  9
$DIMALT
 70
     0
  9
$DIMALTD
 70
     3
  9
$DIMALTF
 40
0.03937007874016
  9
$DIMLFAC
 40
1.0
  9
$DIMTOFL
 70
     1
  9
$DIMTVP
 40
0.0
  9
$DIMTIX
 70
     0
  9
$DIMSOXD
 70
     0
  9
$DIMSAH
 70
     0
  9
$DIMBLK1
  1

  9
$DIMBLK2
  1

  9
$DIMSTYLE
  2
ISO-25
  9
$DIMCLRD
 70
     0
  9
$DIMCLRE
 70
     0
  9
$DIMCLRT
 70
     0
  9
$DIMTFAC
 40
1.0
  9
$DIMGAP
 40
0.625
  9
$LUNITS
 70
     2
  9
$LUPREC
 70
     4
  9
$SKETCHINC
 40
1.0
  9
$FILLETRAD
 40
0.0
  9
$AUNITS
 70
     0
  9
$AUPREC
 70
     0
  9
$MENU
  1
.
  9
$ELEVATION
 40
0.0
  9
$PELEVATION
 40
0.0
  9
$THICKNESS
 40
0.0
  9
$LIMCHECK
 70
     0
  9
$BLIPMODE
 70
     0
  9
$CHAMFERA
 40
0.0
  9
$CHAMFERB
 40
0.0
  9
$SKPOLY
 70
     0
  9
$TDCREATE
 40
2460990.7238657409325242
  9
$TDUPDATE
 40
2460991.5820254632271826
  9
$TDINDWG
 40
0.0015740741
  9
$TDUSRTIMER
 40
0.0015740741
  9
$USRTIMER
 70
     1
  9
$ANGBASE
 50
0.0
  9
$ANGDIR
 70
     0
  9
$PDMODE
 70
     3
  9
$PDSIZE
 40
0.3
  9
$PLINEWID
 40
0.0
  9
$COORDS
 70
     1
  9
$SPLFRAME
 70
     0
  9
$SPLINETYPE
 70
     6
  9
$SPLINESEGS
 70
     8
  9
$ATTDIA
 70
     1
  9
$ATTREQ
 70
     0
  9
$HANDLING
 70
     1
  9
$HANDSEED
  5
5E3
  9
$SURFTAB1
 70
     6
  9
$SURFTAB2
 70
     6
  9
$SURFTYPE
 70
     6
  9
$SURFU
 70
     6
  9
$SURFV
 70
     6
  9
$UCSNAME
  2

  9
$UCSORG
 10
0.0
 20
0.0
 30
0.0
  9
$UCSXDIR
 10
1.0
 20
0.0
 30
0.0
  9
$UCSYDIR
 10
0.0
 20
1.0
 30
0.0
  9
$PUCSNAME
  2

  9
$PUCSORG
 10
0.0
 20
0.0
 30
0.0
  9
$PUCSXDIR
 10
1.0
 20
0.0
 30
0.0
  9
$PUCSYDIR
 10
0.0
 20
1.0
 30
0.0
  9
$USERI1
 70
     0
  9
$USERI2
 70
     0
  9
$USERI3
 70
     0
  9
$USERI4
 70
     0
  9
$USERI5
 70
     0
  9
$USERR1
 40
0.0
  9
$USERR2
 40
0.0
  9
$USERR3
 40
0.0
  9
$USERR4
 40
0.0
  9
$USERR5
 40
0.0
  9
$WORLDVIEW
 70
     1
  9
$SHADEDGE
 70
     3
  9
$SHADEDIF
 70
    70
  9
$TILEMODE
 70
     1
  9
$MAXACTVP
 70
    64
  9
$PLIMCHECK
 70
     0
  9
$PEXTMIN
 10
0.0
 20
0.0
 30
0.0
  9
$PEXTMAX
 10
0.0
 20
0.0
 30
0.0
  9
$PLIMMIN
 10
0.0
 20
0.0
  9
$PLIMMAX
 10
12.0
 20
9.0
  9
$UNITMODE
 70
     0
  9
$VISRETAIN
 70
     1
  9
$PLINEGEN
 70
     0
  9
$PSLTSCALE
 70
     1
  0
ENDSEC
  0
SECTION
  2
TABLES
  0
TABLE
  2
VPORT
 70
     1
  0
VPORT
  2
*ACTIVE
 70
     0
 10
0.0
 20
0.0
 11
1.0
 21
1.0
 12
194319.3808077604044229
 22
513256.0249299086281098
 13
0.0
 23
0.0
 14
10.0
 24
10.0
 15
10.0
 25
10.0
 16
0.0
 26
0.0
 36
1.0
 17
0.0
 27
0.0
 37
0.0
 40
236.3993804428272938
 41
1.8146503884572689
 42
50.0
 43
0.0
 44
0.0
 50
0.0
 51
0.0
 71
     0
 72
  1000
 73
     1
 74
     3
 75
     0
 76
     0
 77
     0
 78
     0
  0
ENDTAB
  0
TABLE
  2
LTYPE
 70
     5
  0
LTYPE
  2
CONTINUOUS
 70
     0
  3
Solid line
 72
    65
 73
     0
 40
0.0
  0
LTYPE
  2
ANYANG1
 70
     0
  3
------ -  - ------ -  - ------ -  - ------ -  -
 72
    65
 73
     6
 40
11.5
 49
6.0
 49
-1.0
 49
1.0
 49
-1.5
 49
1.0
 49
-1.0
  0
LTYPE
  2
ANYANG2
 70
     0
  3
--- --- --- --- --- --- --- --- --- --- --- ---
 72
    65
 73
     2
 40
6.0
 49
5.0
 49
-1.0
  0
LTYPE
  2
ANYANG3
 70
     0
  3
-- -- -- -- -- -- -- -- -- -- -- -- -- -- -- --
 72
    65
 73
     2
 40
3.0
 49
2.0
 49
-1.0
  0
LTYPE
  2
ANYANG6
 70
     0
  3
--  --  --  --  --  --  --  --  --  --  --  -- 
 72
    65
 73
     2
 40
4.0
 49
2.0
 49
-2.0
  0
ENDTAB
  0
TABLE
  2
LAYER
 70
    12
  0
LAYER
  2
0
 70
     0
 62
     7
  6
CONTINUOUS
  0
LAYER
  2
F0027217
 70
     0
 62
     7
  6
CONTINUOUS
  0
LAYER
  2
D0015211
 70
     0
 62
     5
  6
CONTINUOUS
  0
LAYER
  2
B0014116
 70
     0
 62
     7
  6
ANYANG3
  0
LAYER
  2
B0024126
 70
     0
 62
     7
  6
ANYANG1
  0
LAYER
  2
A0023119
 70
     0
 62
     1
  6
ANYANG2
  0
LAYER
  2
F0047224
 70
     0
 62
     7
  6
CONTINUOUS
  0
LAYER
  2
D0025110
 70
     0
 62
     7
  6
ANYANG6
  0
LAYER
  2
D0015112
 70
     0
 62
     3
  6
CONTINUOUS
  0
LAYER
  2
F0027132
 70
     0
 62
     7
  6
CONTINUOUS
  0
LAYER
  2
PTELEV
 70
     0
 62
     7
  6
CONTINUOUS
  0
ENDTAB
  0
TABLE
  2
STYLE
 70
     4
  0
STYLE
  2
STANDARD
 70
     0
 40
0.0
 41
1.0
 50
0.0
 71
     0
 42
2.5
  3
txt
  4

  0
STYLE
  2
GHS
 70
     0
 40
0.0
 41
1.0
 50
0.0
 71
     0
 42
1.0
  3
ROMANS
  4
NGSW.shx
  0
ENDTAB
  0
TABLE
  2
VIEW
 70
     0
  0
ENDTAB
  0
TABLE
  2
UCS
 70
     0
  0
ENDTAB
  0
TABLE
  2
APPID
 70
    10
  0
APPID
  2
ACAD
 70
     0
  0
APPID
  2
ACAD_NAV_VCDISPLAY
 70
     0
  0
APPID
  2
ACAD_MLEADERVER
 70
     0
  0
ENDTAB
  0
TABLE
  2
DIMSTYLE
 70
     4
  0
DIMSTYLE
  2
ISO-25
 70
     0
  3

  4

  5

  6

  7

 40
1.0
 41
2.5
 42
0.625
 43
3.75
 44
1.25
 45
0.0
 46
0.0
 47
0.0
 48
0.0
140
2.5
141
2.5
142
0.0
143
0.03937007874016
144
1.0
145
0.0
146
1.0
147
0.625
 71
     0
 72
     0
 73
     0
 74
     0
 75
     0
 76
     0
 77
     1
 78
     8
170
     0
171
     3
172
     1
173
     0
174
     0
175
     0
176
     0
177
     0
178
     0
  0
ENDTAB
  0
ENDSEC
  0
SECTION
  2
BLOCKS
  0
BLOCK
  8
0
  2
$MODEL_SPACE
 70
     0
 10
0.0
 20
0.0
 30
0.0
  3
$MODEL_SPACE
  1

  0
ENDBLK
  5
4BC
  8
0
  0
BLOCK
 67
     1
  8
0
  2
$PAPER_SPACE
 70
     0
 10
0.0
 20
0.0
 30
0.0
  3
$PAPER_SPACE
  1

  0
ENDBLK
  5
4B8
 67
     1
  8
0
  0
BLOCK
  8
0
  2
D0015211
 70
     0
 10
0.0
 20
0.0
 30
0.0
  3
D0015211
  1

  0
POLYLINE
  5
2BB
  8
D0015211
 66
     1
 10
0.0
 20
0.0
 30
0.0
 70
   128
  0
VERTEX
  5
50B
  8
D0015211
 10
-0.8999999999999984
 20
-0.75
 30
0.0
  0
VERTEX
  5
50C
  8
D0015211
 10
0.8999999999999984
 20
-0.75
 30
0.0
  0
SEQEND
  5
50D
  8
D0015211
  0
POLYLINE
  5
2BC
  8
D0015211
 66
     1
 10
0.0
 20
0.0
 30
0.0
 70
   128
  0
VERTEX
  5
50E
  8
D0015211
 10
0.4499999999999993
 20
-0.75
 30
0.0
  0
VERTEX
  5
50F
  8
D0015211
 10
0.4499999999999993
 20
0.25
 30
0.0
  0
SEQEND
  5
510
  8
D0015211
  0
POLYLINE
  5
2BD
  8
D0015211
 66
     1
 10
0.0
 20
0.0
 30
0.0
 70
   128
  0
VERTEX
  5
511
  8
D0015211
 10
-0.4499999999999993
 20
-0.75
 30
0.0
  0
VERTEX
  5
512
  8
D0015211
 10
-0.4499999999999993
 20
0.75
 30
0.0
  0
SEQEND
  5
513
  8
D0015211
  0
ENDBLK
  5
2BE
  8
0
  0
BLOCK
  8
0
  2
F0047224
 70
     0
 10
0.0
 20
0.0
 30
0.0
  3
F0047224
  1
F0047224
  0
ARC
  5
2C1
  8
F0047224
 10
0.25
 20
0.0
 30
0.0
 40
0.25
 50
180.0
 51
0.0
  0
ENDBLK
  5
2C2
  8
0
  0
ENDSEC
  0
SECTION
  2
ENTITIES
  0
TEXT
  5
320
  8
F0027132
 10
194328.3589999999967404
 20
513287.2619999999878928
 30
0.0
 40
0.5
  1
45.13
  7
GHS
  0
POINT
  5
321
  8
F0027217
 10
194328.3589999999967404
 20
513287.2619999999878928
 30
0.0
  0
TEXT
  5
322
  8
F0027132
 10
194328.7809999999881256
 20
513286.2689999999129213
 30
0.0
 40
0.5
  1
45.09
  7
GHS
  0
POINT
  5
323
  8
F0027217
 10
194328.7809999999881256
 20
513286.2689999999129213
 30
0.0
  0
TEXT
  5
324
  8
F0027132
 10
194330.6490000000048894
 20
513278.9589999999734573
 30
0.0
 40
0.5
  1
45.11
  7
GHS
  0
POINT
  5
325
  8
F0027217
 10
194330.6490000000048894
 20
513278.9589999999734573
 30
0.0
  0
TEXT
  5
326
  8
F0027132
 10
194326.7840000000142027
 20
513290.7849999999743886
 30
0.0
 40
0.5
  1
46.74
  7
GHS
  0
POINT
  5
327
  8
F0027217
 10
194326.7840000000142027
 20
513290.7849999999743886
 30
0.0
  0
TEXT
  5
328
  8
F0027132
 10
194322.2559999999939464
 20
513292.6350000000093132
 30
0.0
 40
0.5
  1
46.58
  7
GHS
  0
POINT
  5
329
  8
F0027217
 10
194322.2559999999939464
 20
513292.6350000000093132
 30
0.0
  0
TEXT
  5
32A
  8
F0027132
 10
194319.0460000000020955
 20
513296.1720000000204891
 30
0.0
 40
0.5
  1
46.54
  7
GHS
  0
POINT
  5
32B
  8
F0027217
 10
194319.0460000000020955
 20
513296.1720000000204891
 30
0.0
  0
TEXT
  5
32C
  8
F0027132
 10
194326.728000000002794
 20
513286.2770000000018626
 30
0.0
 40
0.5
  1
45.28
  7
GHS
  0
POINT
  5
32D
  8
F0027217
 10
194326.728000000002794
 20
513286.2770000000018626
 30
0.0
  0
TEXT
  5
32E
  8
F0027132
 10
194314.2399999999906868
 20
513277.2079999999841675
 30
0.0
 40
0.5
  1
45.59
  7
GHS
  0
POINT
  5
32F
  8
F0027217
 10
194314.2399999999906868
 20
513277.2079999999841675
 30
0.0
  0
TEXT
  5
330
  8
F0027132
 10
194315.8729999999923166
 20
513284.7249999999767169
 30
0.0
 40
0.5
  1
45.41
  7
GHS
  0
POINT
  5
331
  8
F0027217
 10
194315.8729999999923166
 20
513284.7249999999767169
 30
0.0
  0
TEXT
  5
332
  8
F0027132
 10
194317.0579999999899883
 20
513286.5569999997969717
 30
0.0
 40
0.5
  1
45.41
  7
GHS
  0
POINT
  5
333
  8
F0027217
 10
194317.0579999999899883
 20
513286.5569999997969717
 30
0.0
  0
TEXT
  5
334
  8
F0027132
 10
194322.7239999999874271
 20
513288.2320000000181608
 30
0.0
 40
0.5
  1
45.38
  7
GHS
  0
POINT
  5
335
  8
F0027217
 10
194322.7239999999874271
 20
513288.2320000000181608
 30
0.0
  0
TEXT
  5
336
  8
F0027132
 10
194329.3990000000048894
 20
513278.3620000001974404
 30
0.0
 40
0.5
  1
45.27
  7
GHS
  0
POINT
  5
337
  8
F0027217
 10
194329.3990000000048894
 20
513278.3620000001974404
 30
0.0
  0
TEXT
  5
338
  8
F0027132
 10
194324.2119999999995343
 20
513290.4280000000144355
 30
0.0
 40
0.5
  1
46.57
  7
GHS
  0
POINT
  5
339
  8
F0027217
 10
194324.2119999999995343
 20
513290.4280000000144355
 30
0.0
  0
TEXT
  5
33A
  8
F0027132
 10
194318.00700000001234
 20
513289.7999999999883585
 30
0.0
 40
0.5
  1
46.43
  7
GHS
  0
POINT
  5
33B
  8
F0027217
 10
194318.00700000001234
 20
513289.7999999999883585
 30
0.0
  0
TEXT
  5
33C
  8
F0027132
 10
194316.1859999999869615
 20
513288.5250000000814907
 30
0.0
 40
0.5
  1
46.28
  7
GHS
  0
POINT
  5
33D
  8
F0027217
 10
194316.1859999999869615
 20
513288.5250000000814907
 30
0.0
  0
TEXT
  5
33E
  8
F0027132
 10
194313.5359999999927823
 20
513282.1539999999804422
 30
0.0
 40
0.5
  1
46.10
  7
GHS
  0
POINT
  5
33F
  8
F0027217
 10
194313.5359999999927823
 20
513282.1539999999804422
 30
0.0
  0
TEXT
  5
340
  8
F0027132
 10
194327.8369999999122228
 20
513285.5719999999855645
 30
0.0
 40
0.5
  1
45.42
  7
GHS
  0
POINT
  5
341
  8
F0027217
 10
194327.8369999999122228
 20
513285.5719999999855645
 30
0.0
  0
TEXT
  5
342
  8
F0027132
 10
194329.9500000000116415
 20
513278.6379999999771826
 30
0.0
 40
0.5
  1
45.43
  7
GHS
  0
POINT
  5
343
  8
F0027217
 10
194329.9500000000116415
 20
513278.6379999999771826
 30
0.0
  0
TEXT
  5
344
  8
F0027132
 10
194322.1089999999094289
 20
513298.174000000115484
 30
0.0
 40
0.5
  1
45.05
  7
GHS
  0
POINT
  5
345
  8
F0027217
 10
194322.1089999999094289
 20
513298.174000000115484
 30
0.0
  0
TEXT
  5
346
  8
F0027132
 10
194328.5620000000053551
 20
513294.7060000000055879
 30
0.0
 40
0.5
  1
45.07
  7
GHS
  0
POINT
  5
347
  8
F0027217
 10
194328.5620000000053551
 20
513294.7060000000055879
 30
0.0
  0
TEXT
  5
348
  8
F0027132
 10
194329.5780000000086147
 20
513288.590000000083819
 30
0.0
 40
0.5
  1
45.09
  7
GHS
  0
POINT
  5
349
  8
F0027217
 10
194329.5780000000086147
 20
513288.590000000083819
 30
0.0
  0
TEXT
  5
34A
  8
F0027132
 10
194327.6969999999855645
 20
513286.7550000001210719
 30
0.0
 40
0.5
  1
45.47
  7
GHS
  0
POINT
  5
34B
  8
F0027217
 10
194327.6969999999855645
 20
513286.7550000001210719
 30
0.0
  0
TEXT
  5
34C
  8
F0027132
 10
194320.38200000001234
 20
513298.5689999999012798
 30
0.0
 40
0.5
  1
46.53
  7
GHS
  0
POINT
  5
34D
  8
F0027217
 10
194320.38200000001234
 20
513298.5689999999012798
 30
0.0
  0
TEXT
  5
34E
  8
F0027132
 10
194327.8520000000135042
 20
513287.1269999999203719
 30
0.0
 40
0.5
  1
46.49
  7
GHS
  0
POINT
  5
34F
  8
F0027217
 10
194327.8520000000135042
 20
513287.1269999999203719
 30
0.0
  0
INSERT
  5
350
  8
D0015211
  2
D0015211
 10
194346.9756848104880191
 20
513291.7937504830770195
 30
0.0
  0
INSERT
  5
352
  8
F0047224
  2
F0047224
 10
194319.2984215944889002
 20
513298.906356290099211
 30
0.0
 50
164.4087221675659976
  0
INSERT
  5
353
  8
F0047224
  2
F0047224
 10
194323.9413652548100799
 20
513297.1324788886122406
 30
0.0
 50
151.7453287508122912
  0
INSERT
  5
354
  8
F0047224
  2
F0047224
 10
194328.3456094370048959
 20
513294.7655303648207337
 30
0.0
 50
151.7453287508122912
  0
INSERT
  5
355
  8
F0047224
  2
F0047224
 10
194329.3042449282074813
 20
513289.9328102797735482
 30
0.0
 50
99.4319362438930909
  0
POLYLINE
  5
356
  8
D0015112
 66
     1
 10
0.0
 20
0.0
 30
0.0
 70
     1
  0
VERTEX
  5
514
  8
D0015112
 10
194327.6969999999855645
 20
513286.7550000001210719
 30
0.0
  0
VERTEX
  5
515
  8
D0015112
 10
194329.5780000000086147
 20
513288.590000000083819
 30
0.0
  0
VERTEX
  5
516
  8
D0015112
 10
194328.5620000000053551
 20
513294.7060000000055879
 30
0.0
  0
VERTEX
  5
517
  8
D0015112
 10
194322.1089999999094289
 20
513298.174000000115484
 30
0.0
  0
VERTEX
  5
518
  8
D0015112
 10
194312.4329999999899883
 20
513300.8740000001271255
 30
0.0
  0
VERTEX
  5
519
  8
D0015112
 10
194288.8079999999899883
 20
513315.9070000000065193
 30
0.0
  0
VERTEX
  5
51A
  8
D0015112
 10
194284.1790000000037253
 20
513317.3670000000856817
 30
0.0
  0
VERTEX
  5
51B
  8
D0015112
 10
194283.4800000000104774
 20
513321.0200000000186265
 30
0.0
  0
VERTEX
  5
51C
  8
D0015112
 10
194285.760999999998603
 20
513323.8140000000712462
 30
0.0
  0
VERTEX
  5
51D
  8
D0015112
 10
194324.4370000000053551
 20
513317.5129999999771826
 30
0.0
  0
VERTEX
  5
51E
  8
D0015112
 10
194344.6380000000062864
 20
513314.3200000001234002
 30
0.0
  0
VERTEX
  5
51F
  8
D0015112
 10
194355.3660000000090804
 20
513312.5750000001280569
 30
0.0
  0
VERTEX
  5
520
  8
D0015112
 10
194357.371000000013737
 20
513311.064999999885913
 30
0.0
  0
VERTEX
  5
521
  8
D0015112
 10
194359.0789999999979045
 20
513307.6309999998775311
 30
0.0
  0
VERTEX
  5
522
  8
D0015112
 10
194361.5650000000023283
 20
513302.6070000000181608
 30
0.0
  0
VERTEX
  5
523
  8
D0015112
 10
194364.7639999999955762
 20
513298.7630000000935979
 30
0.0
  0
VERTEX
  5
524
  8
D0015112
 10
194378.0089999999036081
 20
513287.1630000000004657
 30
0.0
  0
VERTEX
  5
525
  8
D0015112
 10
194382.521999999997206
 20
513284.2110000001848675
 30
0.0
  0
VERTEX
  5
526
  8
D0015112
 10
194387.8203199914132711
 20
513282.2852228346164338
 30
0.0
  0
VERTEX
  5
527
  8
D0015112
 10
194392.9700000000011642
 20
513282.132999999972526
 30
0.0
  0
VERTEX
  5
528
  8
D0015112
 10
194401.0760000000009313
 20
513282.5050000000046566
 30
0.0
  0
VERTEX
  5
529
  8
D0015112
 10
194403.181842964986572
 20
513281.6541547093074769
 30
0.0
  0
VERTEX
  5
52A
  8
D0015112
 10
194406.8330000000132713
 20
513275.726000000082422
 30
0.0
  0
VERTEX
  5
52B
  8
D0015112
 10
194408.8140000000130385
 20
513271.9749999999185093
 30
0.0
  0
VERTEX
  5
52C
  8
D0015112
 10
194409.0540000000037253
 20
513270.7660000001778826
 30
0.0
  0
VERTEX
  5
52D
  8
D0015112
 10
194407.8260000000009313
 20
513269.965000000083819
 30
0.0
  0
VERTEX
  5
52E
  8
D0015112
 10
194406.1980000000039581
 20
513270.1230000000796281
 30
0.0
  0
VERTEX
  5
52F
  8
D0015112
 10
194392.5369999998947605
 20
513272.7060000000055879
 30
0.0
  0
VERTEX
  5
530
  8
D0015112
 10
194386.5138103151984978
 20
513272.6397128968965262
 30
0.0
  0
VERTEX
  5
531
  8
D0015112
 10
194380.9431940393114928
 20
513271.9460576598066837
 30
0.0
  0
VERTEX
  5
532
  8
D0015112
 10
194374.9750000000058208
 20
513269.9550000000745058
 30
0.0
  0
VERTEX
  5
533
  8
D0015112
 10
194369.1159485151001718
 20
513266.6749918527784757
 30
0.0
  0
VERTEX
  5
534
  8
D0015112
 10
194362.585016365890624
 20
513262.5571214187075384
 30
0.0
  0
VERTEX
  5
535
  8
D0015112
 10
194358.981999999989057
 20
513261.5790000000270084
 30
0.0
  0
VERTEX
  5
536
  8
D0015112
 10
194354.6129284848866519
 20
513262.3077869567787275
 30
0.0
  0
VERTEX
  5
537
  8
D0015112
 10
194340.4420000000100117
 20
513268.4149999999790452
 30
0.0
  0
VERTEX
  5
538
  8
D0015112
 10
194336.3165499423048459
 20
513270.8769445564830676
 30
0.0
  0
VERTEX
  5
539
  8
D0015112
 10
194332.7563233234977815
 20
513274.8266504518105648
 30
0.0
  0
VERTEX
  5
53A
  8
D0015112
 10
194330.6490000000048894
 20
513278.9589999999734573
 30
0.0
  0
VERTEX
  5
53B
  8
D0015112
 10
194328.7809999999881256
 20
513286.2689999999129213
 30
0.0
  0
VERTEX
  5
53C
  8
D0015112
 10
194327.6969999998109415
 20
513286.7550000002956949
 30
0.0
  0
SEQEND
  5
53D
  8
D0015112
  0
POLYLINE
  5
357
  8
D0025110
 66
     1
 10
0.0
 20
0.0
 30
0.0
  0
VERTEX
  5
53E
  8
D0025110
 10
194327.6556416265084408
 20
513286.7777306166826747
 30
0.0
  0
VERTEX
  5
53F
  8
D0025110
 10
194324.2119999999995343
 20
513290.4280000000144355
 30
0.0
  0
VERTEX
  5
540
  8
D0025110
 10
194318.00700000001234
 20
513289.7999999999883585
 30
0.0
  0
VERTEX
  5
541
  8
D0025110
 10
194316.1859999999869615
 20
513288.5250000000814907
 30
0.0
  0
VERTEX
  5
542
  8
D0025110
 10
194313.5359999999927823
 20
513282.1539999999804422
 30
0.0
  0
VERTEX
  5
543
  8
D0025110
 10
194312.4970000000030268
 20
513272.2910000000847504
 30
0.0
  0
VERTEX
  5
544
  8
D0025110
 10
194313.8740000000107102
 20
513265.007999999972526
 30
0.0
  0
VERTEX
  5
545
  8
D0025110
 10
194314.1510000000125729
 20
513262.4960000001010485
 30
0.0
  0
VERTEX
  5
546
  8
D0025110
 10
194305.2999999999883585
 20
513262.2889999999897555
 30
0.0
  0
VERTEX
  5
547
  8
D0025110
 10
194299.7104142575990409
 20
513265.2057025140966289
 30
0.0
  0
SEQEND
  5
548
  8
D0025110
  0
POLYLINE
  5
358
  8
D0015112
 66
     1
 10
0.0
 20
0.0
 30
0.0
 70
     1
  0
VERTEX
  5
549
  8
D0015112
 10
194329.3990000000048894
 20
513278.3620000001974404
 30
0.0
  0
VERTEX
  5
54A
  8
D0015112
 10
194326.728000000002794
 20
513286.2770000000018626
 30
0.0
  0
VERTEX
  5
54B
  8
D0015112
 10
194322.7239999999874271
 20
513288.2320000000181608
 30
0.0
  0
VERTEX
  5
54C
  8
D0015112
 10
194317.0579999999899883
 20
513286.5569999997969717
 30
0.0
  0
VERTEX
  5
54D
  8
D0015112
 10
194315.8729999999923166
 20
513284.7249999999767169
 30
0.0
  0
VERTEX
  5
54E
  8
D0015112
 10
194314.2399999999906868
 20
513277.2079999999841675
 30
0.0
  0
VERTEX
  5
54F
  8
D0015112
 10
194315.6540000000095461
 20
513272.18200000008801
 30
0.0
  0
VERTEX
  5
550
  8
D0015112
 10
194320.5780000000086147
 20
513263.0879999999888241
 30
0.0
  0
VERTEX
  5
551
  8
D0015112
 10
194326.4260000000067521
 20
513256.7660000000032596
 30
0.0
  0
VERTEX
  5
552
  8
D0015112
 10
194329.3399999999965075
 20
513251.7239999999874271
 30
0.0
  0
VERTEX
  5
553
  8
D0015112
 10
194336.5029999999969732
 20
513243.6620000000111759
 30
0.0
  0
VERTEX
  5
554
  8
D0015112
 10
194340.2339999999967404
 20
513237.8410000000731088
 30
0.0
  0
VERTEX
  5
555
  8
D0015112
 10
194346.9709999994083773
 20
513235.2230000001727603
 30
0.0
  0
VERTEX
  5
556
  8
D0015112
 10
194352.8379999999888241
 20
513231.510999999998603
 30
0.0
  0
VERTEX
  5
557
  8
D0015112
 10
194358.1330000000016298
 20
513228.885999999998603
 30
0.0
  0
VERTEX
  5
558
  8
D0015112
 10
194367.6741961021907628
 20
513223.9490798044716939
 30
0.0
  0
VERTEX
  5
559
  8
D0015112
 10
194371.217000000004191
 20
513222.882999999797903
 30
0.0
  0
VERTEX
  5
55A
  8
D0015112
 10
194384.7989999999990687
 20
513223.089999999909196
 30
0.0
  0
VERTEX
  5
55B
  8
D0015112
 10
194399.5735538851877209
 20
513223.1990135093219578
 30
0.0
  0
VERTEX
  5
55C
  8
D0015112
 10
194412.878999999986263
 20
513224.0879999999888241
 30
0.0
  0
VERTEX
  5
55D
  8
D0015112
 10
194412.8690000000060536
 20
513228.8929999999818392
 30
0.0
  0
VERTEX
  5
55E
  8
D0015112
 10
194412.8040000000037253
 20
513233.9360000001033768
 30
0.0
  0
VERTEX
  5
55F
  8
D0015112
 10
194404.8340000000025611
 20
513235.2550000000046566
 30
0.0
  0
VERTEX
  5
560
  8
D0015112
 10
194395.4970000000030268
 20
513237.2050000000162981
 30
0.0
  0
VERTEX
  5
561
  8
D0015112
 10
194386.1989999999932479
 20
513237.3790000000735745
 30
0.0
  0
VERTEX
  5
562
  8
D0015112
 10
194379.4949999999953434
 20
513235.9990000001271255
 30
0.0
  0
VERTEX
  5
563
  8
D0015112
 10
194372.2660000000032596
 20
513233.9130000000004657
 30
0.0
  0
VERTEX
  5
564
  8
D0015112
 10
194364.5679999999993015
 20
513238.0530000000144355
 30
0.0
  0
VERTEX
  5
565
  8
D0015112
 10
194356.5240000000048894
 20
513244.9160000000265427
 30
0.0
  0
VERTEX
  5
566
  8
D0015112
 10
194347.9370000000053551
 20
513249.027000000118278
 30
0.0
  0
VERTEX
  5
567
  8
D0015112
 10
194346.1659999999974389
 20
513249.9479999999166466
 30
0.0
  0
VERTEX
  5
568
  8
D0015112
 10
194339.1929999999993015
 20
513256.0270000000018626
 30
0.0
  0
VERTEX
  5
569
  8
D0015112
 10
194334.2969999999040738
 20
513262.8140000001876615
 30
0.0
  0
VERTEX
  5
56A
  8
D0015112
 10
194333.3360000000102445
 20
513266.215000000083819
 30
0.0
  0
VERTEX
  5
56B
  8
D0015112
 10
194334.6780000000144355
 20
513270.1670000000158325
 30
0.0
  0
VERTEX
  5
56C
  8
D0015112
 10
194331.4672709591104649
 20
513274.1829898895812221
 30
0.0
  0
SEQEND
  5
56D
  8
D0015112
  0
POLYLINE
  5
359
  8
A0023119
 66
     1
 10
0.0
 20
0.0
 30
0.0
  0
VERTEX
  5
56E
  8
A0023119
 10
194327.8369999999122228
 20
513285.5719999999855645
 30
0.0
  0
VERTEX
  5
56F
  8
A0023119
 10
194329.9500000000116415
 20
513278.6379999999771826
 30
0.0
  0
VERTEX
  5
570
  8
A0023119
 10
194332.1099999999860302
 20
513274.4170000000158325
 30
0.0
  0
VERTEX
  5
571
  8
A0023119
 10
194335.6689999999944121
 20
513270.4340000000083819
 30
0.0
  0
VERTEX
  5
572
  8
A0023119
 10
194340.1020000000135042
 20
513267.7490000000107102
 30
0.0
  0
VERTEX
  5
573
  8
A0023119
 10
194347.996000000013737
 20
513264.2230000001145527
 30
0.0
  0
VERTEX
  5
574
  8
A0023119
 10
194354.4210000000020955
 20
513261.4860000000917353
 30
0.0
  0
VERTEX
  5
575
  8
A0023119
 10
194359.0529999998980202
 20
513260.7349999999860302
 30
0.0
  0
VERTEX
  5
576
  8
A0023119
 10
194362.968999999895459
 20
513261.9039999999804422
 30
0.0
  0
VERTEX
  5
577
  8
A0023119
 10
194369.3179999999993015
 20
513265.978000000002794
 30
0.0
  0
VERTEX
  5
578
  8
A0023119
 10
194375.1279999999969732
 20
513269.2630000000935979
 30
0.0
  0
VERTEX
  5
579
  8
A0023119
 10
194380.7809999999881256
 20
513271.2019999998738058
 30
0.0
  0
VERTEX
  5
57A
  8
A0023119
 10
194386.5119999999878928
 20
513272.0030000000842847
 30
0.0
  0
VERTEX
  5
57B
  8
A0023119
 10
194392.4459999999962747
 20
513272.0110000001150183
 30
0.0
  0
VERTEX
  5
57C
  8
A0023119
 10
194406.1810000000114087
 20
513269.2569999999250285
 30
0.0
  0
SEQEND
  5
57D
  8
A0023119
  0
POLYLINE
  5
35A
  8
B0024126
 66
     1
 10
0.0
 20
0.0
 30
0.0
  0
VERTEX
  5
57E
  8
B0024126
 10
194320.38200000001234
 20
513298.5689999999012798
 30
0.0
  0
VERTEX
  5
57F
  8
B0024126
 10
194322.07143487650319
 20
513298.0806619853829034
 30
0.0
  0
VERTEX
  5
580
  8
B0024126
 10
194328.4714002152904868
 20
513294.6411641094018705
 30
0.0
  0
VERTEX
  5
581
  8
B0024126
 10
194329.4707953922916204
 20
513288.6251199130783789
 30
0.0
  0
VERTEX
  5
582
  8
B0024126
 10
194327.8520000000135042
 20
513287.1269999999203719
 30
0.0
  0
SEQEND
  5
583
  8
B0024126
  0
POLYLINE
  5
35B
  8
F0047224
 66
     1
 10
0.0
 20
0.0
 30
0.0
  0
VERTEX
  5
584
  8
F0047224
 10
194284.1639601947099436
 20
513317.3193155764020048
 30
0.0
  0
VERTEX
  5
585
  8
F0047224
 10
194288.786697709991131
 20
513315.8612907822825946
 30
0.0
  0
VERTEX
  5
586
  8
F0047224
 10
194312.4124161512008868
 20
513300.8278336254879832
 30
0.0
  0
VERTEX
  5
587
  8
F0047224
 10
194322.0902174382063095
 20
513298.1273309926036745
 30
0.0
  0
VERTEX
  5
588
  8
F0047224
 10
194328.5167001076042652
 20
513294.6735820546164177
 30
0.0
  0
VERTEX
  5
589
  8
F0047224
 10
194329.5243976961064618
 20
513288.6075599564937875
 30
0.0
  0
VERTEX
  5
58A
  8
F0047224
 10
194327.6620849962055217
 20
513286.7907902572187595
 30
0.0
  0
SEQEND
  5
58B
  8
F0047224
  0
POLYLINE
  5
35C
  8
B0014116
 66
     1
 10
0.0
 20
0.0
 30
0.0
 70
     1
  0
VERTEX
  5
58C
  8
B0014116
 10
194272.503999999986263
 20
513281.9770000000717118
 30
0.0
  0
VERTEX
  5
58D
  8
B0014116
 10
194304.7650000000139698
 20
513263.3420000001206063
 30
0.0
  0
VERTEX
  5
58E
  8
B0014116
 10
194311.7190000000118744
 20
513274.8089999998919666
 30
0.0
  0
VERTEX
  5
58F
  8
B0014116
 10
194307.9345498255861457
 20
513277.0830237984191626
 30
0.0
  0
VERTEX
  5
590
  8
B0014116
 10
194319.0460000000020955
 20
513296.1720000000204891
 30
0.0
  0
VERTEX
  5
591
  8
B0014116
 10
194320.3062099509115797
 20
513298.4886883107246831
 30
0.0
  0
VERTEX
  5
592
  8
B0014116
 10
194312.3468407063919585
 20
513300.7702112325932831
 30
0.0
  0
VERTEX
  5
593
  8
B0014116
 10
194311.9877621605992317
 20
513300.1863938785973005
 30
0.0
  0
VERTEX
  5
594
  8
B0014116
 10
194278.7259999999951106
 20
513320.8030000000726432
 30
0.0
  0
VERTEX
  5
595
  8
B0014116
 10
194277.5424621065030806
 20
513318.9745112414821051
 30
0.0
  0
VERTEX
  5
596
  8
B0014116
 10
194271.0510000000067521
 20
513322.7029999999795109
 30
0.0
  0
VERTEX
  5
597
  8
B0014116
 10
194268.0299999999988358
 20
513310.464999999909196
 30
0.0
  0
VERTEX
  5
598
  8
B0014116
 10
194268.4860000000044238
 20
513299.2270000000717118
 30
0.0
  0
VERTEX
  5
599
  8
B0014116
 10
194273.6570047005079687
 20
513296.2908809860236943
 30
0.0
  0
VERTEX
  5
59A
  8
B0014116
 10
194270.4899999999906868
 20
513291.1660000000847504
 30
0.0
  0
VERTEX
  5
59B
  8
B0014116
 10
194276.2300000000104774
 20
513287.768999999971129
 30
0.0
  0
SEQEND
  5
59C
  8
B0014116
  0
POLYLINE
  5
35D
  8
B0014116
 66
     1
 10
0.0
 20
0.0
 30
0.0
 70
     1
  0
VERTEX
  5
59D
  8
B0014116
 10
194328.3725191983976401
 20
513294.6730080703855492
 30
0.0
  0
VERTEX
  5
59E
  8
B0014116
 10
194323.8445191984064877
 20
513296.5230080704786815
 30
0.0
  0
VERTEX
  5
59F
  8
B0014116
 10
194322.2559999999939464
 20
513292.6350000000093132
 30
0.0
  0
VERTEX
  5
5A0
  8
B0014116
 10
194326.7840000000142027
 20
513290.7849999999743886
 30
0.0
  0
SEQEND
  5
5A1
  8
B0014116
  0
ENDSEC
  0
EOF
